<?xml version="1.0" standalone="no"?>
<!DOCTYPE svg PUBLIC "-//W3C//DTD SVG 20010904//EN"
 "http://www.w3.org/TR/2001/REC-SVG-20010904/DTD/svg10.dtd">
<svg version="1.0" xmlns="http://www.w3.org/2000/svg"
 width="348.000000pt" height="281.000000pt" viewBox="0 0 348.000000 281.000000"
 preserveAspectRatio="xMidYMid meet">

<g transform="translate(0.000000,281.000000) scale(0.100000,-0.100000)"
fill="#000000" stroke="none">
<path d="M786 2510 c-38 -12 -85 -57 -103 -99 -30 -69 -14 -178 34 -232 12
-15 8 -19 -41 -43 -68 -33 -119 -89 -160 -175 l-31 -66 -3 -413 c-3 -363 -1
-417 13 -438 16 -26 44 -31 76 -14 18 10 19 25 19 383 0 301 3 384 15 432 55
213 273 275 395 112 l34 -46 13 30 c7 17 22 44 34 60 19 28 20 31 5 54 -18 27
-90 80 -132 95 -25 10 -25 12 -11 28 28 31 47 90 47 147 0 89 -49 165 -121
185 -39 11 -44 11 -83 0z"/>
<path d="M2189 2511 c-48 -15 -68 -31 -95 -77 -45 -76 -35 -190 23 -255 12
-15 8 -19 -39 -42 -29 -14 -68 -42 -87 -61 l-34 -35 34 -64 33 -65 27 37 c35
48 58 67 102 86 101 42 210 -4 273 -117 l29 -53 5 -408 c5 -390 6 -409 24
-423 27 -19 52 -18 76 6 19 19 20 33 20 388 0 202 -5 396 -10 431 -17 120 -95
233 -194 281 l-45 21 26 41 c32 47 42 135 23 193 -17 52 -65 103 -108 115 -42
11 -47 11 -83 1z"/>
<path d="M492 730 c-29 -12 -42 -48 -42 -116 0 -69 29 -104 85 -104 36 0 85
35 85 60 0 22 -33 24 -48 2 -18 -27 -58 -29 -72 -3 -5 11 -10 36 -10 56 0 20
5 45 10 56 14 25 56 25 70 -1 13 -24 50 -27 50 -5 0 9 -11 27 -25 40 -25 26
-62 31 -103 15z"/>
<path d="M753 728 c-32 -15 -46 -60 -41 -125 4 -43 10 -61 28 -75 32 -26 86
-23 115 7 22 21 25 33 25 90 0 57 -3 69 -25 90 -26 27 -64 31 -102 13z m76
-42 c7 -8 11 -37 9 -67 -2 -40 -8 -55 -25 -66 -19 -13 -24 -12 -42 6 -23 23
-28 72 -11 115 11 29 50 36 69 12z"/>
<path d="M2047 734 c-4 -4 -7 -56 -7 -116 0 -108 0 -108 24 -108 22 0 25 5 28
42 2 23 8 43 15 45 6 2 23 -16 38 -41 20 -35 33 -46 52 -46 17 0 22 4 17 13
-4 6 -23 35 -41 63 l-32 52 34 45 c41 53 42 57 16 57 -11 0 -36 -20 -58 -47
l-38 -46 -5 44 c-5 42 -24 61 -43 43z"/>
<path d="M970 610 c0 -18 7 -20 55 -20 48 0 55 2 55 20 0 18 -7 20 -55 20 -48
0 -55 -2 -55 -20z"/>
<path d="M260 360 c0 -11 7 -20 15 -20 11 0 15 -11 15 -40 0 -33 3 -40 20 -40
17 0 20 7 20 40 0 29 4 40 15 40 8 0 15 9 15 20 0 17 -7 20 -50 20 -43 0 -50
-3 -50 -20z"/>
<path d="M1267 373 c-4 -3 -7 -30 -7 -60 l0 -53 50 0 c38 0 50 4 50 15 0 9
-10 16 -27 16 -24 2 -25 2 -5 6 27 5 29 33 2 33 -11 0 -20 5 -20 10 0 6 9 10
20 10 11 0 20 7 20 15 0 11 -11 15 -38 15 -21 0 -42 -3 -45 -7z"/>
<path d="M1420 370 c0 -5 5 -20 11 -33 9 -20 8 -30 -6 -51 -17 -26 -17 -26 8
-26 14 0 28 7 32 18 6 16 7 16 16 0 6 -10 19 -18 29 -18 24 0 25 4 4 35 -15
23 -15 27 0 50 21 31 20 35 -4 35 -10 0 -23 -8 -29 -17 -9 -17 -10 -17 -16 0
-7 18 -45 24 -45 7z"/>
<path d="M1590 320 c0 -53 2 -60 20 -60 13 0 20 7 20 19 0 13 9 20 30 25 24 4
30 11 30 30 0 29 -25 46 -69 46 l-31 0 0 -60z m60 20 c0 -5 -4 -10 -10 -10 -5
0 -10 5 -10 10 0 6 5 10 10 10 6 0 10 -4 10 -10z"/>
<path d="M1760 320 l0 -60 40 0 c33 0 40 3 40 20 0 13 -7 20 -20 20 -17 0 -20
7 -20 40 0 33 -3 40 -20 40 -18 0 -20 -7 -20 -60z"/>
<path d="M1932 364 c-45 -31 -17 -104 40 -104 53 0 79 74 36 104 -12 9 -29 16
-38 16 -9 0 -26 -7 -38 -16z m54 -35 c10 -17 -13 -36 -27 -22 -12 12 -4 33 11
33 5 0 12 -5 16 -11z"/>
<path d="M2100 320 c0 -53 2 -60 20 -60 14 0 20 7 21 23 l0 22 11 -22 c7 -14
20 -23 35 -23 24 0 31 14 13 25 -6 4 -8 21 -4 40 7 38 -13 55 -65 55 l-31 0 0
-60z m60 20 c0 -5 -4 -10 -10 -10 -5 0 -10 5 -10 10 0 6 5 10 10 10 6 0 10 -4
10 -10z"/>
<path d="M2270 320 l0 -60 45 0 c33 0 45 4 45 15 0 9 -10 15 -27 16 -28 1 -28
1 -4 8 31 8 40 31 12 31 -12 0 -21 5 -21 10 0 6 9 10 20 10 11 0 20 7 20 15 0
11 -12 15 -45 15 l-45 0 0 -60z"/>
<path d="M2610 320 c0 -53 2 -60 20 -60 15 0 20 7 21 28 l1 27 11 -27 c15 -38
42 -36 55 5 l10 32 1 -32 c1 -26 5 -33 21 -33 18 0 20 7 20 60 0 60 0 60 -29
60 -24 0 -31 -6 -41 -32 l-12 -33 -9 33 c-8 27 -14 32 -39 32 -30 0 -30 0 -30
-60z"/>
<path d="M2425 269 c-9 -29 4 -38 21 -15 18 25 18 36 0 36 -8 0 -18 -9 -21
-21z"/>
</g>
</svg>
